<svg width="24" height="24" viewBox="0 0 24 24" fill="none" xmlns="http://www.w3.org/2000/svg">
<path d="M16.7075 13.175C16.0525 14.5025 15.165 15.825 14.2575 17.0125C13.3966 18.132 12.4761 19.2044 11.5 20.225C10.5239 19.2044 9.60336 18.132 8.7425 17.0125C7.835 15.825 6.9475 14.5025 6.2925 13.175C5.63 11.8337 5.25 10.5775 5.25 9.5C5.25 7.8424 5.90848 6.25269 7.08058 5.08058C8.25269 3.90848 9.8424 3.25 11.5 3.25C13.1576 3.25 14.7473 3.90848 15.9194 5.08058C17.0915 6.25269 17.75 7.8424 17.75 9.5C17.75 10.5775 17.3688 11.8337 16.7075 13.175ZM11.5 22C11.5 22 19 14.8925 19 9.5C19 7.51088 18.2098 5.60322 16.8033 4.1967C15.3968 2.79018 13.4891 2 11.5 2C9.51088 2 7.60322 2.79018 6.1967 4.1967C4.79018 5.60322 4 7.51088 4 9.5C4 14.8925 11.5 22 11.5 22Z" fill="#333333"/>
<path d="M11.5 12C10.837 12 10.2011 11.7366 9.73223 11.2678C9.26339 10.7989 9 10.163 9 9.5C9 8.83696 9.26339 8.20107 9.73223 7.73223C10.2011 7.26339 10.837 7 11.5 7C12.163 7 12.7989 7.26339 13.2678 7.73223C13.7366 8.20107 14 8.83696 14 9.5C14 10.163 13.7366 10.7989 13.2678 11.2678C12.7989 11.7366 12.163 12 11.5 12ZM11.5 13.25C12.4946 13.25 13.4484 12.8549 14.1517 12.1517C14.8549 11.4484 15.25 10.4946 15.25 9.5C15.25 8.50544 14.8549 7.55161 14.1517 6.84835C13.4484 6.14509 12.4946 5.75 11.5 5.75C10.5054 5.75 9.55161 6.14509 8.84835 6.84835C8.14509 7.55161 7.75 8.50544 7.75 9.5C7.75 10.4946 8.14509 11.4484 8.84835 12.1517C9.55161 12.8549 10.5054 13.25 11.5 13.25Z" fill="#333333"/>
</svg>
