<svg width="24" height="24" viewBox="0 0 24 24" fill="none" xmlns="http://www.w3.org/2000/svg">
<path d="M10.7445 16.5442L4.33356 9.21629C3.57697 8.3541 4.19186 7 5.34011 7H18.162C18.4189 6.99978 18.6705 7.07364 18.8866 7.21273C19.1027 7.35182 19.2741 7.55024 19.3803 7.78425C19.4865 8.01825 19.523 8.27791 19.4855 8.53212C19.4479 8.78634 19.3379 9.02434 19.1685 9.21762L12.7576 16.5429C12.6321 16.6864 12.4774 16.8015 12.3038 16.8804C12.1302 16.9592 11.9417 17 11.751 17C11.5604 17 11.3719 16.9592 11.1983 16.8804C11.0247 16.8015 10.8699 16.6864 10.7445 16.5429V16.5442Z" fill="#333333"/>
</svg>
