<svg width="24" height="24" viewBox="0 0 24 24" fill="none" xmlns="http://www.w3.org/2000/svg">
<path d="M16.5442 12.7554L9.21629 19.1663C8.35276 19.9229 7 19.308 7 18.1597V5.33787C6.99978 5.08089 7.07364 4.8293 7.21273 4.61322C7.35182 4.39713 7.55024 4.22573 7.78425 4.11951C8.01825 4.0133 8.27791 3.9768 8.53212 4.01436C8.78634 4.05192 9.02434 4.16197 9.21762 4.33132L16.5429 10.7422C16.6864 10.8677 16.8015 11.0224 16.8804 11.1961C16.9592 11.3697 17 11.5581 17 11.7488C17 11.9395 16.9592 12.1279 16.8804 12.3015C16.8015 12.4752 16.6864 12.6299 16.5429 12.7554H16.5442Z" fill="#333333"/>
</svg>
