<svg width="24" height="24" viewBox="0 0 24 24" fill="none" xmlns="http://www.w3.org/2000/svg">
<path d="M7.45604 12.7554L14.784 19.1663C15.6475 19.9229 17.0002 19.308 17.0002 18.1597V5.33787C17.0005 5.08089 16.9266 4.8293 16.7875 4.61322C16.6484 4.39713 16.45 4.22573 16.216 4.11951C15.982 4.0133 15.7223 3.9768 15.4681 4.01436C15.2139 4.05192 14.9759 4.16197 14.7826 4.33132L7.45738 10.7422C7.3138 10.8677 7.19873 11.0224 7.11988 11.1961C7.04104 11.3697 7.00024 11.5581 7.00024 11.7488C7.00024 11.9395 7.04104 12.1279 7.11988 12.3015C7.19873 12.4752 7.3138 12.6299 7.45738 12.7554H7.45604Z" fill="#333333"/>
</svg>
