<svg width="24" height="24" viewBox="0 0 24 24" fill="none" xmlns="http://www.w3.org/2000/svg">
<path d="M20.75 17.5C20.75 17.8315 20.6183 18.1495 20.3839 18.3839C20.1495 18.6183 19.8315 18.75 19.5 18.75H4.5C4.16848 18.75 3.85054 18.6183 3.61612 18.3839C3.3817 18.1495 3.25 17.8315 3.25 17.5V10C3.25 9.66848 3.3817 9.35054 3.61612 9.11612C3.85054 8.8817 4.16848 8.75 4.5 8.75H5.965C6.95905 8.74946 7.91221 8.35425 8.615 7.65125L9.6525 6.61625C9.88625 6.38242 10.2031 6.25073 10.5337 6.25H13.4637C13.7952 6.25007 14.1131 6.38181 14.3475 6.61625L15.3825 7.65125C15.7308 7.99964 16.1443 8.276 16.5994 8.46453C17.0546 8.65305 17.5424 8.75006 18.035 8.75H19.5C19.8315 8.75 20.1495 8.8817 20.3839 9.11612C20.6183 9.35054 20.75 9.66848 20.75 10V17.5ZM4.5 7.5C3.83696 7.5 3.20107 7.76339 2.73223 8.23223C2.26339 8.70107 2 9.33696 2 10V17.5C2 18.163 2.26339 18.7989 2.73223 19.2678C3.20107 19.7366 3.83696 20 4.5 20H19.5C20.163 20 20.7989 19.7366 21.2678 19.2678C21.7366 18.7989 22 18.163 22 17.5V10C22 9.33696 21.7366 8.70107 21.2678 8.23223C20.7989 7.76339 20.163 7.5 19.5 7.5H18.035C17.372 7.49986 16.7362 7.23637 16.2675 6.7675L15.2325 5.7325C14.7638 5.26363 14.128 5.00014 13.465 5H10.535C9.87201 5.00014 9.23623 5.26363 8.7675 5.7325L7.7325 6.7675C7.26377 7.23637 6.62799 7.49986 5.965 7.5H4.5Z" fill="#333333"/>
<path d="M12 16.25C11.1712 16.25 10.3763 15.9208 9.79029 15.3347C9.20424 14.7487 8.875 13.9538 8.875 13.125C8.875 12.2962 9.20424 11.5013 9.79029 10.9153C10.3763 10.3292 11.1712 10 12 10C12.8288 10 13.6237 10.3292 14.2097 10.9153C14.7958 11.5013 15.125 12.2962 15.125 13.125C15.125 13.9538 14.7958 14.7487 14.2097 15.3347C13.6237 15.9208 12.8288 16.25 12 16.25ZM12 17.5C13.1603 17.5 14.2731 17.0391 15.0936 16.2186C15.9141 15.3981 16.375 14.2853 16.375 13.125C16.375 11.9647 15.9141 10.8519 15.0936 10.0314C14.2731 9.21094 13.1603 8.75 12 8.75C10.8397 8.75 9.72688 9.21094 8.90641 10.0314C8.08594 10.8519 7.625 11.9647 7.625 13.125C7.625 14.2853 8.08594 15.3981 8.90641 16.2186C9.72688 17.0391 10.8397 17.5 12 17.5ZM5.75 10.625C5.75 10.7908 5.68415 10.9497 5.56694 11.0669C5.44973 11.1842 5.29076 11.25 5.125 11.25C4.95924 11.25 4.80027 11.1842 4.68306 11.0669C4.56585 10.9497 4.5 10.7908 4.5 10.625C4.5 10.4592 4.56585 10.3003 4.68306 10.1831C4.80027 10.0658 4.95924 10 5.125 10C5.29076 10 5.44973 10.0658 5.56694 10.1831C5.68415 10.3003 5.75 10.4592 5.75 10.625Z" fill="#333333"/>
</svg>
