<svg width="24" height="24" viewBox="0 0 24 24" fill="none" xmlns="http://www.w3.org/2000/svg">
<path fill-rule="evenodd" clip-rule="evenodd" d="M16.1419 19.999C16.2934 19.999 16.4388 19.9388 16.5459 19.8316C16.6531 19.7245 16.7133 19.5792 16.7133 19.4276V5.95163L20.3082 9.54774C20.4155 9.65503 20.561 9.7153 20.7127 9.7153C20.8645 9.7153 21.01 9.65503 21.1173 9.54774C21.2246 9.44046 21.2848 9.29495 21.2848 9.14322C21.2848 8.9915 21.2246 8.84599 21.1173 8.7387L16.5464 4.16786C16.4933 4.11465 16.4303 4.07243 16.3609 4.04363C16.2915 4.01483 16.2171 4 16.1419 4C16.0667 4 15.9923 4.01483 15.9229 4.04363C15.8535 4.07243 15.7905 4.11465 15.7374 4.16786L11.1665 8.7387C11.0593 8.84599 10.999 8.9915 10.999 9.14322C10.999 9.29495 11.0593 9.44046 11.1665 9.54774C11.2738 9.65503 11.4193 9.7153 11.5711 9.7153C11.7228 9.7153 11.8683 9.65503 11.9756 9.54774L15.5705 5.95163V19.4276C15.5705 19.5792 15.6307 19.7245 15.7379 19.8316C15.845 19.9388 15.9904 19.999 16.1419 19.999ZM8.14292 4.00102C8.29446 4.00102 8.43978 4.06122 8.54693 4.16837C8.65408 4.27552 8.71428 4.42084 8.71428 4.57238V18.0484L12.3092 14.4523C12.4165 14.345 12.562 14.2847 12.7138 14.2847C12.8655 14.2847 13.011 14.345 13.1183 14.4523C13.2256 14.5595 13.2858 14.7051 13.2858 14.8568C13.2858 15.0085 13.2256 15.154 13.1183 15.2613L8.54744 19.8321C8.49437 19.8854 8.43132 19.9276 8.3619 19.9564C8.29249 19.9852 8.21808 20 8.14292 20C8.06777 20 7.99335 19.9852 7.92394 19.9564C7.85453 19.9276 7.79148 19.8854 7.7384 19.8321L3.16756 15.2613C3.06027 15.154 3 15.0085 3 14.8568C3 14.7051 3.06027 14.5595 3.16756 14.4523C3.27484 14.345 3.42035 14.2847 3.57208 14.2847C3.7238 14.2847 3.86931 14.345 3.9766 14.4523L7.57157 18.0484V4.57238C7.57157 4.42084 7.63176 4.27552 7.73891 4.16837C7.84606 4.06122 7.99139 4.00102 8.14292 4.00102Z" fill="#333333"/>
</svg>
