<svg width="24" height="24" viewBox="0 0 24 24" fill="none" xmlns="http://www.w3.org/2000/svg">
<path fill-rule="evenodd" clip-rule="evenodd" d="M4.00102 16.1419C4.00102 16.2934 4.06122 16.4388 4.16837 16.5459C4.27552 16.6531 4.42084 16.7133 4.57238 16.7133H18.0484L14.4523 20.3082C14.345 20.4155 14.2847 20.561 14.2847 20.7127C14.2847 20.8645 14.345 21.01 14.4523 21.1173C14.5595 21.2246 14.7051 21.2848 14.8568 21.2848C15.0085 21.2848 15.154 21.2246 15.2613 21.1173L19.8321 16.5464C19.8854 16.4933 19.9276 16.4303 19.9564 16.3609C19.9852 16.2915 20 16.2171 20 16.1419C20 16.0667 19.9852 15.9923 19.9564 15.9229C19.9276 15.8535 19.8854 15.7905 19.8321 15.7374L15.2613 11.1665C15.154 11.0593 15.0085 10.999 14.8568 10.999C14.7051 10.999 14.5595 11.0593 14.4523 11.1665C14.345 11.2738 14.2847 11.4193 14.2847 11.5711C14.2847 11.7228 14.345 11.8683 14.4523 11.9756L18.0484 15.5705H4.57238C4.42084 15.5705 4.27552 15.6307 4.16837 15.7379C4.06122 15.845 4.00102 15.9904 4.00102 16.1419ZM19.999 8.14292C19.999 8.29446 19.9388 8.43978 19.8316 8.54693C19.7245 8.65408 19.5792 8.71428 19.4276 8.71428H5.95163L9.54774 12.3092C9.60086 12.3624 9.643 12.4254 9.67175 12.4948C9.7005 12.5642 9.7153 12.6386 9.7153 12.7138C9.7153 12.7889 9.7005 12.8633 9.67175 12.9327C9.643 13.0021 9.60086 13.0652 9.54774 13.1183C9.49462 13.1714 9.43155 13.2135 9.36215 13.2423C9.29274 13.271 9.21835 13.2858 9.14322 13.2858C9.0681 13.2858 8.9937 13.271 8.9243 13.2423C8.85489 13.2135 8.79182 13.1714 8.7387 13.1183L4.16786 8.54744C4.11465 8.49437 4.07243 8.43132 4.04363 8.3619C4.01483 8.29249 4 8.21808 4 8.14292C4 8.06777 4.01483 7.99335 4.04363 7.92394C4.07243 7.85453 4.11465 7.79148 4.16786 7.7384L8.7387 3.16756C8.84599 3.06027 8.9915 3 9.14322 3C9.29495 3 9.44046 3.06027 9.54774 3.16756C9.65503 3.27484 9.7153 3.42035 9.7153 3.57208C9.7153 3.7238 9.65503 3.86931 9.54774 3.9766L5.95163 7.57157H19.4276C19.5792 7.57157 19.7245 7.63176 19.8316 7.73891C19.9388 7.84606 19.999 7.99139 19.999 8.14292Z" fill="#333333"/>
</svg>
