<svg width="24" height="24" viewBox="0 0 24 24" fill="none" xmlns="http://www.w3.org/2000/svg">
<path fill-rule="evenodd" clip-rule="evenodd" d="M15.4358 4.18077C15.4931 4.23793 15.5386 4.30583 15.5696 4.38058C15.6006 4.45534 15.6166 4.53548 15.6166 4.61641C15.6166 4.69735 15.6006 4.77749 15.5696 4.85224C15.5386 4.927 15.4931 4.9949 15.4358 5.05205L8.48646 12.0002L15.4358 18.9483C15.5513 19.0638 15.6162 19.2205 15.6162 19.3839C15.6162 19.5473 15.5513 19.704 15.4358 19.8196C15.3203 19.9351 15.1636 20 15.0002 20C14.8368 20 14.6801 19.9351 14.5645 19.8196L7.18077 12.4358C7.12347 12.3786 7.07801 12.3107 7.04699 12.236C7.01597 12.1612 7 12.0811 7 12.0002C7 11.9192 7.01597 11.8391 7.04699 11.7643C7.07801 11.6896 7.12347 11.6217 7.18077 11.5645L14.5645 4.18077C14.6217 4.12347 14.6896 4.07801 14.7643 4.04699C14.8391 4.01597 14.9192 4 15.0002 4C15.0811 4 15.1612 4.01597 15.236 4.04699C15.3107 4.07801 15.3786 4.12347 15.4358 4.18077Z" fill="#333333"/>
</svg>
