<svg width="24" height="24" viewBox="0 0 24 24" fill="none" xmlns="http://www.w3.org/2000/svg">
<path d="M11.5 22C11.5 22 19 14.8925 19 9.5C19 7.51088 18.2098 5.60322 16.8033 4.1967C15.3968 2.79018 13.4891 2 11.5 2C9.51088 2 7.60322 2.79018 6.1967 4.1967C4.79018 5.60322 4 7.51088 4 9.5C4 14.8925 11.5 22 11.5 22ZM11.5 13.25C10.5054 13.25 9.55161 12.8549 8.84835 12.1517C8.14509 11.4484 7.75 10.4946 7.75 9.5C7.75 8.50544 8.14509 7.55161 8.84835 6.84835C9.55161 6.14509 10.5054 5.75 11.5 5.75C12.4946 5.75 13.4484 6.14509 14.1517 6.84835C14.8549 7.55161 15.25 8.50544 15.25 9.5C15.25 10.4946 14.8549 11.4484 14.1517 12.1517C13.4484 12.8549 12.4946 13.25 11.5 13.25Z" fill="#333333"/>
</svg>
