<svg width="24" height="24" viewBox="0 0 24 24" fill="none" xmlns="http://www.w3.org/2000/svg">
<path d="M12 6.375C12 6.20924 11.9342 6.05027 11.8169 5.93306C11.6997 5.81585 11.5408 5.75 11.375 5.75C11.2092 5.75 11.0503 5.81585 10.9331 5.93306C10.8158 6.05027 10.75 6.20924 10.75 6.375V13.25C10.75 13.3602 10.7792 13.4684 10.8345 13.5636C10.8898 13.6589 10.9693 13.7379 11.065 13.7925L15.44 16.2925C15.5836 16.3701 15.7518 16.3885 15.9087 16.3436C16.0657 16.2988 16.1988 16.1944 16.2798 16.0527C16.3608 15.9111 16.3831 15.7433 16.342 15.5854C16.301 15.4274 16.1997 15.2918 16.06 15.2075L12 12.8875V6.375Z" fill="#333333"/>
<path d="M12 22C14.6522 22 17.1957 20.9464 19.0711 19.0711C20.9464 17.1957 22 14.6522 22 12C22 9.34783 20.9464 6.8043 19.0711 4.92893C17.1957 3.05357 14.6522 2 12 2C9.34783 2 6.8043 3.05357 4.92893 4.92893C3.05357 6.8043 2 9.34783 2 12C2 14.6522 3.05357 17.1957 4.92893 19.0711C6.8043 20.9464 9.34783 22 12 22ZM20.75 12C20.75 14.3206 19.8281 16.5462 18.1872 18.1872C16.5462 19.8281 14.3206 20.75 12 20.75C9.67936 20.75 7.45376 19.8281 5.81282 18.1872C4.17187 16.5462 3.25 14.3206 3.25 12C3.25 9.67936 4.17187 7.45376 5.81282 5.81282C7.45376 4.17187 9.67936 3.25 12 3.25C14.3206 3.25 16.5462 4.17187 18.1872 5.81282C19.8281 7.45376 20.75 9.67936 20.75 12Z" fill="#333333"/>
</svg>
