<svg width="24" height="24" viewBox="0 0 24 24" fill="none" xmlns="http://www.w3.org/2000/svg">
<path d="M12 20.75C9.67936 20.75 7.45376 19.8281 5.81282 18.1872C4.17187 16.5462 3.25 14.3206 3.25 12C3.25 9.67936 4.17187 7.45376 5.81282 5.81282C7.45376 4.17187 9.67936 3.25 12 3.25C14.3206 3.25 16.5462 4.17187 18.1872 5.81282C19.8281 7.45376 20.75 9.67936 20.75 12C20.75 14.3206 19.8281 16.5462 18.1872 18.1872C16.5462 19.8281 14.3206 20.75 12 20.75ZM12 22C14.6522 22 17.1957 20.9464 19.0711 19.0711C20.9464 17.1957 22 14.6522 22 12C22 9.34783 20.9464 6.8043 19.0711 4.92893C17.1957 3.05357 14.6522 2 12 2C9.34783 2 6.8043 3.05357 4.92893 4.92893C3.05357 6.8043 2 9.34783 2 12C2 14.6522 3.05357 17.1957 4.92893 19.0711C6.8043 20.9464 9.34783 22 12 22Z" fill="#333333"/>
<path d="M13.1625 10.235L10.3 10.5938L10.1975 11.0687L10.76 11.1725C11.1275 11.26 11.2 11.3925 11.12 11.7587L10.1975 16.0937C9.95499 17.215 10.3287 17.7425 11.2075 17.7425C11.8887 17.7425 12.68 17.4275 13.0387 16.995L13.1487 16.475C12.8987 16.695 12.5337 16.7825 12.2912 16.7825C11.9475 16.7825 11.8225 16.5412 11.9112 16.1162L13.1625 10.235ZM13.25 7.625C13.25 7.95652 13.1183 8.27446 12.8839 8.50888C12.6495 8.7433 12.3315 8.875 12 8.875C11.6685 8.875 11.3505 8.7433 11.1161 8.50888C10.8817 8.27446 10.75 7.95652 10.75 7.625C10.75 7.29348 10.8817 6.97554 11.1161 6.74112C11.3505 6.5067 11.6685 6.375 12 6.375C12.3315 6.375 12.6495 6.5067 12.8839 6.74112C13.1183 6.97554 13.25 7.29348 13.25 7.625Z" fill="#333333"/>
</svg>
