<svg width="24" height="24" viewBox="0 0 24 24" fill="none" xmlns="http://www.w3.org/2000/svg">
<path d="M4 4.50004C4 3.83699 4.2634 3.20109 4.73224 2.73224C5.20109 2.2634 5.83699 2 6.50004 2H16.5002C17.1633 2 17.7991 2.2634 18.268 2.73224C18.7368 3.20109 19.0002 3.83699 19.0002 4.50004V21.3753C19.0002 21.4884 18.9695 21.5993 18.9113 21.6963C18.8532 21.7932 18.7699 21.8726 18.6702 21.926C18.5706 21.9794 18.4583 22.0047 18.3454 21.9993C18.2324 21.9939 18.1231 21.958 18.029 21.8953L11.5001 18.3765L4.97127 21.8953C4.87715 21.958 4.7678 21.9939 4.65487 21.9993C4.54195 22.0047 4.42967 21.9794 4.33 21.926C4.23034 21.8726 4.14701 21.7932 4.08889 21.6963C4.03078 21.5993 4.00006 21.4884 4 21.3753V4.50004ZM6.50004 3.25002C6.16851 3.25002 5.85057 3.38172 5.61614 3.61614C5.38172 3.85057 5.25002 4.16851 5.25002 4.50004V20.2078L11.1539 17.1052C11.2564 17.037 11.3769 17.0006 11.5001 17.0006C11.6233 17.0006 11.7438 17.037 11.8464 17.1052L17.7502 20.2078V4.50004C17.7502 4.16851 17.6185 3.85057 17.3841 3.61614C17.1497 3.38172 16.8317 3.25002 16.5002 3.25002H6.50004Z" fill="#333333"/>
</svg>
