<svg width="24" height="24" viewBox="0 0 24 24" fill="none" xmlns="http://www.w3.org/2000/svg">
<path d="M12 8.36364C9.99091 8.36364 8.36364 9.99091 8.36364 12C8.36364 14.0091 9.99091 15.6364 12 15.6364C14.0091 15.6364 15.6364 14.0091 15.6364 12C15.6364 9.99091 14.0091 8.36364 12 8.36364ZM20.1273 11.0909C19.7091 7.3 16.7 4.29091 12.9091 3.87273V2H11.0909V3.87273C7.3 4.29091 4.29091 7.3 3.87273 11.0909H2V12.9091H3.87273C4.29091 16.7 7.3 19.7091 11.0909 20.1273V22H12.9091V20.1273C16.7 19.7091 19.7091 16.7 20.1273 12.9091H22V11.0909H20.1273ZM12 18.3636C8.48182 18.3636 5.63636 15.5182 5.63636 12C5.63636 8.48182 8.48182 5.63636 12 5.63636C15.5182 5.63636 18.3636 8.48182 18.3636 12C18.3636 15.5182 15.5182 18.3636 12 18.3636Z" fill="#333333"/>
</svg>
