<svg width="24" height="24" viewBox="0 0 24 24" fill="none" xmlns="http://www.w3.org/2000/svg">
<path d="M6.56773 3.66057C6.49394 3.56565 6.4008 3.48752 6.29449 3.43136C6.18818 3.3752 6.07114 3.34231 5.95115 3.33486C5.83115 3.32741 5.71094 3.34558 5.5985 3.38816C5.48606 3.43074 5.38398 3.49676 5.29901 3.58182L4.00655 4.87554C3.40281 5.48053 3.18032 6.33676 3.44406 7.08799C4.53871 10.1974 6.31936 13.0205 8.65393 15.3478C10.9813 17.6823 13.8043 19.463 16.9137 20.5577C17.665 20.8214 18.5212 20.5989 19.1262 19.9952L20.4186 18.7027C20.5037 18.6177 20.5697 18.5157 20.6123 18.4032C20.6549 18.2908 20.6731 18.1706 20.6656 18.0506C20.6582 17.9306 20.6253 17.8135 20.5691 17.7072C20.513 17.6009 20.4348 17.5078 20.3399 17.434L17.4562 15.1915C17.3548 15.1129 17.2369 15.0583 17.1113 15.0319C16.9857 15.0055 16.8557 15.0079 16.7312 15.039L13.9938 15.7228C13.6284 15.8141 13.2456 15.8093 12.8826 15.7087C12.5197 15.6082 12.1889 15.4154 11.9226 15.149L8.85268 12.0779C8.58614 11.8117 8.3931 11.481 8.29233 11.118C8.19157 10.755 8.18652 10.3722 8.27769 10.0067L8.96267 7.26923C8.99381 7.14473 8.99626 7.01478 8.96984 6.8892C8.94343 6.76361 8.88883 6.64566 8.81018 6.54425L6.56773 3.66057ZM4.35529 2.63935C4.57402 2.42054 4.83681 2.25077 5.12619 2.14131C5.41557 2.03185 5.72493 1.98521 6.03372 2.00448C6.34251 2.02375 6.64367 2.10849 6.9172 2.25308C7.19073 2.39766 7.43037 2.59879 7.62021 2.84309L9.86265 5.72552C10.2739 6.25426 10.4189 6.94299 10.2564 7.59298L9.57266 10.3304C9.53731 10.4722 9.53922 10.6207 9.5782 10.7615C9.61719 10.9024 9.69192 11.0307 9.79515 11.1341L12.8663 14.2053C12.9699 14.3088 13.0984 14.3836 13.2395 14.4226C13.3806 14.4616 13.5293 14.4634 13.6713 14.4278L16.4075 13.7441C16.7283 13.6639 17.063 13.6576 17.3866 13.7259C17.7101 13.7941 18.0139 13.9349 18.2749 14.1378L21.1574 16.3803C22.1936 17.1865 22.2886 18.7177 21.3611 19.6439L20.0687 20.9364C19.1437 21.8614 17.7612 22.2676 16.4725 21.8139C13.174 20.6533 10.1792 18.765 7.7102 16.289C5.23438 13.8203 3.34607 10.826 2.18534 7.52798C1.73285 6.24051 2.13909 4.85679 3.06407 3.93182L4.35654 2.63935H4.35529Z" fill="#333333"/>
</svg>
