<svg width="24" height="24" viewBox="0 0 24 24" fill="none" xmlns="http://www.w3.org/2000/svg">
<path fill-rule="evenodd" clip-rule="evenodd" d="M4 4.41045C4 3.63148 4.63148 3 5.41045 3H5.47761C6.25658 3 6.88806 3.63148 6.88806 4.41045V8.67537C6.88806 8.78665 6.97827 8.87687 7.08955 8.87687H7.15672C7.268 8.87687 7.35821 8.78665 7.35821 8.67537V4.41045C7.35821 3.63148 7.98969 3 8.76866 3H8.83582C9.61479 3 10.2463 3.63148 10.2463 4.41045V8.67537C10.2463 8.78665 10.3365 8.87687 10.4478 8.87687H10.5149C10.6262 8.87687 10.7164 8.78665 10.7164 8.67537V4.41045C10.7164 3.63148 11.3479 3 12.1269 3H12.194C12.973 3 13.6045 3.63148 13.6045 4.41045V9.48134C13.6045 11.2785 12.4029 12.782 10.7669 13.2635C10.665 13.2935 10.5796 13.3499 10.525 13.4121C10.473 13.4712 10.4562 13.5254 10.4562 13.5718V19.5896C10.4562 20.3685 9.82468 21 9.04571 21H8.55877C7.7798 21 7.14832 20.3685 7.14832 19.5896V13.5718C7.14832 13.5254 7.13149 13.4712 7.0795 13.4121C7.02486 13.3499 6.9395 13.2935 6.83754 13.2635C5.20154 12.782 4 11.2785 4 9.48134V4.41045ZM5.41045 4.20896C5.29917 4.20896 5.20896 4.29917 5.20896 4.41045V9.48134C5.20896 10.7224 6.03796 11.7679 7.17888 12.1037C7.76478 12.2762 8.35728 12.8032 8.35728 13.5718V19.5896C8.35728 19.7008 8.44749 19.791 8.55877 19.791H9.04571C9.15699 19.791 9.2472 19.7008 9.2472 19.5896V13.5718C9.2472 12.8032 9.83969 12.2762 10.4256 12.1037C11.5665 11.7679 12.3955 10.7224 12.3955 9.48134V4.41045C12.3955 4.29917 12.3053 4.20896 12.194 4.20896H12.1269C12.0156 4.20896 11.9254 4.29917 11.9254 4.41045V8.67537C11.9254 9.45434 11.2939 10.0858 10.5149 10.0858H10.4478C9.66879 10.0858 9.03731 9.45434 9.03731 8.67537V4.41045C9.03731 4.29917 8.9471 4.20896 8.83582 4.20896H8.76866C8.65737 4.20896 8.56716 4.29917 8.56716 4.41045V8.67537C8.56716 9.45434 7.93568 10.0858 7.15672 10.0858H7.08955C6.31058 10.0858 5.6791 9.45434 5.6791 8.67537V4.41045C5.6791 4.29917 5.58889 4.20896 5.47761 4.20896H5.41045ZM18.8031 3.08559C19.6894 2.91875 20.3209 3.66897 20.3209 4.41045V19.5896C20.3209 20.3685 19.6894 21 18.9104 21H18.4235C17.6445 21 17.0131 20.3685 17.0131 19.5896V14.4851C17.0131 14.3738 16.9228 14.2836 16.8116 14.2836H16.3246C15.5457 14.2836 14.9142 13.6521 14.9142 12.8731V6.96269C14.9142 6.09883 15.3865 5.2249 16.0622 4.54349C16.7489 3.85105 17.7062 3.29205 18.8031 3.08559ZM19.0444 4.27344C19.0427 4.27294 19.0382 4.27151 19.0267 4.27368C18.1893 4.4313 17.4486 4.86241 16.9207 5.39476C16.3818 5.93815 16.1231 6.5237 16.1231 6.96269V12.8731C16.1231 12.9844 16.2133 13.0746 16.3246 13.0746H16.8116C17.5905 13.0746 18.222 13.7061 18.222 14.4851V19.5896C18.222 19.7008 18.3122 19.791 18.4235 19.791H18.9104C19.0217 19.791 19.1119 19.7008 19.1119 19.5896V4.41045C19.1119 4.35141 19.0874 4.30819 19.065 4.28708C19.0548 4.27739 19.0472 4.27433 19.0444 4.27344Z" fill="#333333"/>
</svg>
