<svg width="30" height="56" viewBox="0 0 30 56" fill="none" xmlns="http://www.w3.org/2000/svg">
<path d="M29.955 4.64988C29.4409 4.45233 28.7684 4.80247 28.9503 3.9237C28.4129 3.68119 28.9683 3.27655 28.8112 2.93866C28.0449 3.03131 24.7941 2.18933 25.304 1.50266C24.2525 1.73836 24.444 -0.403385 22.9929 0.0680174C22.4183 0.10889 20.6047 1.61574 21.1049 2.05172C20.9258 2.20023 20.901 2.46181 20.7136 2.17843C20.7894 2.81877 19.5202 2.87054 19.0613 3.0136C14.7052 2.95501 13.983 7.67857 12.0592 10.3994C10.6164 10.6569 10.1093 12.3844 9.63383 13.5493C7.7059 16.0058 5.74352 18.7156 4.58043 21.3179C3.63506 22.5046 2.97772 23.9406 1.87526 25.1014C2.41133 25.6177 1.19311 26.9461 2.00618 26.4802C1.63823 26.6464 1.1559 27.4502 1.36951 27.7813C1.73332 27.2499 1.64788 28.7881 1.6148 28.9693C1.94279 29.3072 1.66166 29.517 1.29922 29.5388C1.23859 29.9653 1.54866 30.0347 1.89317 29.8672C1.74021 29.9884 1.57897 31.6778 1.94141 31.3495L1.88491 31.6765C0.567464 32.3373 0.987778 35.0539 0.0231236 36.3115C-0.244223 37.4532 1.89042 37.7107 2.10953 38.8156C1.91798 39.3729 2.92949 40.8565 2.39204 41.016C4.02506 42.1577 2.82613 44.4752 4.39576 45.715C2.99288 45.1714 7.97325 47.8908 8.41837 48.2995C9.47536 49.662 10.4069 51.6429 10.2526 53.1648C10.2168 53.2302 9.79783 54.0735 10.0473 54.1594C10.6095 54.4754 10.0087 55.6757 10.768 55.6253C10.7404 54.5163 12.3886 55.4046 12.4699 56C13.0225 55.876 11.6679 54.4237 12.8461 54.3337C13.3422 53.7574 12.966 53.2533 13.243 52.5966C12.4244 49.7423 14.0878 46.4384 15.08 43.7299C15.9192 42.8212 17.2408 42.3947 17.8045 41.2857C17.1099 39.8034 18.5858 40.8184 19.0764 38.817C19.957 38.1085 19.8495 36.7161 20.7687 36.1316C21.2745 35.8782 20.5151 34.8537 20.9933 34.4899C22.6539 30.5566 23.1238 26.1041 24.2304 21.9106C24.3462 22.3561 24.5446 21.4228 24.6232 21.3983C24.0706 20.8288 23.9452 19.8982 24.7527 19.4977C24.7086 18.4936 25.2061 17.8069 26.0895 17.2292C26.8446 16.1311 26.4037 14.1978 27.8603 13.5479C27.2911 13.3054 27.6136 12.8068 28.0656 12.7032C27.7969 11.9375 28.581 11.5969 27.8382 11.3435C27.2016 9.64865 26.7826 7.13768 28.5397 5.97689C28.6375 5.24118 30.2912 5.33927 29.955 4.64988ZM4.32135 45.2041L4.30343 45.1823C4.31308 45.1877 4.33375 45.1891 4.32135 45.2041Z" fill="#0DC7D2"/>
</svg>
