<svg width="24" height="24" viewBox="0 0 24 24" fill="none" xmlns="http://www.w3.org/2000/svg">
<path d="M5.125 6.75C5.29076 6.75 5.44973 6.68415 5.56694 6.56694C5.68415 6.44973 5.75 6.29076 5.75 6.125C5.75 5.95924 5.68415 5.80027 5.56694 5.68306C5.44973 5.56585 5.29076 5.5 5.125 5.5C4.95924 5.5 4.80027 5.56585 4.68306 5.68306C4.56585 5.80027 4.5 5.95924 4.5 6.125C4.5 6.29076 4.56585 6.44973 4.68306 6.56694C4.80027 6.68415 4.95924 6.75 5.125 6.75ZM7.625 6.125C7.625 6.29076 7.55915 6.44973 7.44194 6.56694C7.32473 6.68415 7.16576 6.75 7 6.75C6.83424 6.75 6.67527 6.68415 6.55806 6.56694C6.44085 6.44973 6.375 6.29076 6.375 6.125C6.375 5.95924 6.44085 5.80027 6.55806 5.68306C6.67527 5.56585 6.83424 5.5 7 5.5C7.16576 5.5 7.32473 5.56585 7.44194 5.68306C7.55915 5.80027 7.625 5.95924 7.625 6.125ZM8.875 6.75C9.04076 6.75 9.19973 6.68415 9.31694 6.56694C9.43415 6.44973 9.5 6.29076 9.5 6.125C9.5 5.95924 9.43415 5.80027 9.31694 5.68306C9.19973 5.56585 9.04076 5.5 8.875 5.5C8.70924 5.5 8.55027 5.56585 8.43306 5.68306C8.31585 5.80027 8.25 5.95924 8.25 6.125C8.25 6.29076 8.31585 6.44973 8.43306 6.56694C8.55027 6.68415 8.70924 6.75 8.875 6.75Z" fill="#333333"/>
<path d="M4.5 3C3.83696 3 3.20107 3.26339 2.73223 3.73223C2.26339 4.20107 2 4.83696 2 5.5V18C2 18.663 2.26339 19.2989 2.73223 19.7678C3.20107 20.2366 3.83696 20.5 4.5 20.5H19.5C20.163 20.5 20.7989 20.2366 21.2678 19.7678C21.7366 19.2989 22 18.663 22 18V5.5C22 4.83696 21.7366 4.20107 21.2678 3.73223C20.7989 3.26339 20.163 3 19.5 3H4.5ZM20.75 5.5V8H3.25V5.5C3.25 5.16848 3.3817 4.85054 3.61612 4.61612C3.85054 4.3817 4.16848 4.25 4.5 4.25H19.5C19.8315 4.25 20.1495 4.3817 20.3839 4.61612C20.6183 4.85054 20.75 5.16848 20.75 5.5ZM4.5 19.25C4.16848 19.25 3.85054 19.1183 3.61612 18.8839C3.3817 18.6495 3.25 18.3315 3.25 18V9.25H20.75V18C20.75 18.3315 20.6183 18.6495 20.3839 18.8839C20.1495 19.1183 19.8315 19.25 19.5 19.25H4.5Z" fill="#333333"/>
</svg>
