<svg width="128" height="20" viewBox="0 0 128 20" fill="none" xmlns="http://www.w3.org/2000/svg">
<path d="M6.71924 0.681768C6.52977 0.628164 6.32629 0.713412 6.24791 0.876753C4.83122 3.82903 2.55217 6.73182 0.134687 8.64023C-0.0468772 8.78357 -0.0442616 9.04032 0.138823 9.18209C0.581587 9.52496 1.11846 9.97634 1.48445 10.319C1.63613 10.461 1.89063 10.4745 2.04794 10.3375C4.51944 8.18485 7.0191 4.92569 8.67239 1.62909C8.76509 1.44424 8.65533 1.22953 8.43938 1.16843L6.71924 0.681768ZM13.8621 12.1339C13.6458 12.2228 13.5718 12.4648 13.7071 12.64C14.3682 13.4964 15.0775 14.4332 15.7695 15.3818C15.9289 15.6002 15.7655 15.8903 15.4745 15.9073L6.93234 16.4037C6.59403 16.4233 6.39446 16.0674 6.61064 15.8338C8.73824 13.5347 10.8383 10.7678 12.6114 7.9831C12.7238 7.80657 12.6386 7.58232 12.4299 7.50216L10.556 6.7824C10.3669 6.70974 10.1476 6.78403 10.0576 6.94965C8.12391 10.5075 5.19956 14.1129 4.21456 15.0435C3.48956 15.8349 2.93066 16.4085 2.37055 16.6888C2.1556 16.7963 2.0276 17.0374 2.12327 17.2404C2.3372 17.6943 2.55786 18.2517 2.69877 18.6555C2.76656 18.8498 3.00214 18.9596 3.22238 18.9085C4.35447 18.6456 6.70526 18.4948 17.1617 17.7985C17.3052 17.789 17.4479 17.8519 17.5215 17.9625C17.9076 18.5427 18.2273 19.0744 18.5013 19.567C18.599 19.7426 18.84 19.8122 19.0324 19.7181L20.6178 18.9424C20.7995 18.8534 20.8697 18.652 20.7722 18.4885C19.6323 16.5775 17.5934 13.8369 15.8009 11.638C15.6939 11.5068 15.4985 11.4616 15.3336 11.5294L13.8621 12.1339ZM10.5512 0.543479C10.34 0.543479 10.1688 0.696607 10.1688 0.885499V2.26667C10.1688 2.45557 10.34 2.60869 10.5512 2.60869H14.1006C14.2588 2.60869 14.4004 2.69589 14.4588 2.82748C15.7369 5.70959 17.7859 8.52996 20.2911 10.3484C20.4695 10.4779 20.733 10.4305 20.8594 10.2591C21.1914 9.80882 21.638 9.29212 22.0283 8.90314C22.1945 8.73759 22.1627 8.47268 21.9587 8.34545C19.3488 6.71775 17.2427 3.80465 16.1593 0.7853C16.1079 0.641946 15.9598 0.543479 15.7915 0.543479H10.5512Z" fill="#575757"/>
<path d="M31.7646 11.9348C31.5535 11.9348 31.3823 11.7817 31.3823 11.5928V10.429C31.3823 10.2401 31.5535 10.087 31.7646 10.087H35.8935C36.1046 10.087 36.2758 10.2401 36.2758 10.429V11.5928C36.2758 11.7817 36.1046 11.9348 35.8935 11.9348H31.7646ZM31.3823 7.08115C31.3823 6.89226 31.5535 6.73913 31.7646 6.73913H35.8935C36.1046 6.73913 36.2758 6.89226 36.2758 7.08115V8.20146C36.2758 8.39035 36.1046 8.54348 35.8935 8.54348H31.7646C31.5535 8.54348 31.3823 8.39035 31.3823 8.20146V7.08115ZM43.1977 6.73913C43.4088 6.73913 43.58 6.89226 43.58 7.08115V8.20146C43.58 8.39035 43.4088 8.54348 43.1977 8.54348H38.9724C38.7612 8.54348 38.59 8.39035 38.59 8.20146V7.08115C38.59 6.89226 38.7612 6.73913 38.9724 6.73913H43.1977ZM43.58 11.5928C43.58 11.7817 43.4088 11.9348 43.1977 11.9348H38.9724C38.7612 11.9348 38.59 11.7817 38.59 11.5928V10.429C38.59 10.2401 38.7612 10.087 38.9724 10.087H43.1977C43.4088 10.087 43.58 10.2401 43.58 10.429V11.5928ZM48.353 15.429C48.353 15.2401 48.1819 15.087 47.9707 15.087H38.9724C38.7612 15.087 38.59 14.9338 38.59 14.7449V13.929C38.59 13.7401 38.7612 13.587 38.9724 13.587H45.4395C45.6507 13.587 45.8219 13.4338 45.8219 13.2449V5.40724C45.8219 5.21835 45.6507 5.06522 45.4395 5.06522H38.9724C38.7612 5.06522 38.59 4.91209 38.59 4.7232V4.05941C38.59 3.87052 38.7612 3.71739 38.9724 3.71739H47.1752C47.3863 3.71739 47.5575 3.56426 47.5575 3.37537V2.21159C47.5575 2.02269 47.3863 1.86957 47.1752 1.86957H38.9724C38.7612 1.86957 38.59 1.71644 38.59 1.52754V0.342021C38.59 0.153128 38.4188 0 38.2077 0H36.6582C36.447 0 36.2758 0.153128 36.2758 0.342021V1.52754C36.2758 1.71644 36.1046 1.86957 35.8935 1.86957H27.8353C27.6241 1.86957 27.453 2.02269 27.453 2.21159V3.37537C27.453 3.56426 27.6241 3.71739 27.8353 3.71739H35.8935C36.1046 3.71739 36.2758 3.87052 36.2758 4.05941V4.7232C36.2758 4.91209 36.1046 5.06522 35.8935 5.06522H29.5951C29.3839 5.06522 29.2127 5.21835 29.2127 5.40724V13.2449C29.2127 13.4338 29.3839 13.587 29.5951 13.587H35.8935C36.1046 13.587 36.2758 13.7401 36.2758 13.929V14.7449C36.2758 14.9338 36.1046 15.087 35.8935 15.087H27.1362C26.9251 15.087 26.7539 15.2401 26.7539 15.429V16.571C26.7539 16.7599 26.9251 16.913 27.1362 16.913H35.8935C36.1046 16.913 36.2758 17.0662 36.2758 17.2551V19.658C36.2758 19.8469 36.447 20 36.6582 20H38.2077C38.4188 20 38.59 19.8469 38.59 19.658V17.2551C38.59 17.0662 38.7612 16.913 38.9724 16.913H47.9707C48.1819 16.913 48.353 16.7599 48.353 16.571V15.429Z" fill="#575757"/>
<path d="M68.4817 12.2768C68.4817 12.0879 68.6529 11.9348 68.8641 11.9348H73.234C73.4452 11.9348 73.6164 11.7817 73.6164 11.5928V10.4072C73.6164 10.2183 73.4452 10.0652 73.234 10.0652H68.8641C68.6529 10.0652 68.4817 9.91209 68.4817 9.7232V6.49419C68.4817 6.3053 68.3106 6.15217 68.0994 6.15217H66.5981C66.3869 6.15217 66.2158 6.3053 66.2158 6.49419V9.7232C66.2158 9.91209 66.0446 10.0652 65.8334 10.0652H61.4394C61.2282 10.0652 61.057 10.2183 61.057 10.4072V11.5928C61.057 11.7817 61.2282 11.9348 61.4394 11.9348H65.8334C66.0446 11.9348 66.2158 12.0879 66.2158 12.2768V17.2015C66.2158 17.3903 66.0446 17.5435 65.8334 17.5435H60.5234C60.3122 17.5435 60.141 17.6966 60.141 17.8855V19.0928C60.141 19.2817 60.3122 19.4348 60.5234 19.4348H74.15C74.3612 19.4348 74.5324 19.2817 74.5324 19.0928V17.8855C74.5324 17.6966 74.3612 17.5435 74.15 17.5435H68.8641C68.6529 17.5435 68.4817 17.3903 68.4817 17.2015V12.2768ZM63.0614 3.17391C62.7927 3.17391 62.6077 2.93248 62.7011 2.70715C62.9583 2.08684 63.1942 1.46652 63.417 0.846209C63.4843 0.658655 63.3596 0.459754 63.1459 0.412076L61.5679 0.0599837C61.3649 0.0146805 61.1591 0.123826 61.1041 0.30443C60.8341 1.19132 60.524 2.07821 60.1179 2.9651C60.0597 3.09205 59.9209 3.17391 59.7675 3.17391H53.8941C53.683 3.17391 53.5118 3.32704 53.5118 3.51593V4.76667C53.5118 4.95557 53.683 5.10869 53.8941 5.10869H58.4353C58.7201 5.10869 58.9044 5.37699 58.7704 5.60176C57.3654 7.95807 55.5105 10.1094 53.1708 11.6302C53.0008 11.7406 52.9557 11.9516 53.064 12.1125C53.3051 12.4707 53.5724 12.925 53.7762 13.3182C53.8803 13.5193 54.1647 13.5939 54.3628 13.4608C54.8657 13.1228 55.3516 12.7593 55.8159 12.3828C56.4417 11.8752 56.4768 12.0195 56.4768 12.6382V19.571C56.4768 19.7599 56.648 19.913 56.8592 19.913H58.3363C58.5475 19.913 58.7187 19.7599 58.7187 19.571V9.59054C58.7187 9.5176 58.7449 9.44663 58.7928 9.38766C59.8231 8.1214 60.7067 6.74229 61.483 5.30369C61.5471 5.18478 61.6814 5.10869 61.829 5.10869H74.1741C74.3853 5.10869 74.5565 4.95557 74.5565 4.76667V3.51593C74.5565 3.32704 74.3853 3.17391 74.1741 3.17391H63.0614Z" fill="#575757"/>
<path d="M83.4068 3.84782C83.618 3.84782 83.7892 4.00095 83.7892 4.18985V12.0928C83.7892 12.2817 83.618 12.4348 83.4068 12.4348H82.3636C82.1524 12.4348 81.9812 12.2817 81.9812 12.0928V4.18985C81.9812 4.00095 82.1524 3.84782 82.3636 3.84782H83.4068ZM85.1666 14.2826C85.3778 14.2826 85.5489 14.1295 85.5489 13.9406V2.34202C85.5489 2.15313 85.3778 2 85.1666 2H80.6521C80.4409 2 80.2697 2.15313 80.2697 2.34202V14.4707C80.2697 14.6596 80.4409 14.8127 80.6521 14.8127H81.5989C81.81 14.8127 81.9812 14.6596 81.9812 14.4707C81.9812 14.2818 82.1524 14.2826 82.3636 14.2826H85.1666ZM90.2409 11.1957C90.0137 11.1957 89.8369 11.0195 89.8579 10.8172C89.9564 9.86927 89.9982 8.96464 90.0068 8.12455C90.0088 7.93566 90.1798 7.78261 90.391 7.78261H91.3313C91.545 7.78261 91.7172 7.93929 91.7141 8.13041C91.698 9.13275 91.6946 10.0393 91.6791 10.8611C91.6756 11.0471 91.5057 11.1957 91.2977 11.1957H90.2409ZM90.0086 3.08115C90.0086 2.89226 90.1798 2.73913 90.391 2.73913H91.3594C91.5715 2.73913 91.7431 2.89361 91.7417 3.08337L91.7226 5.72541C91.7212 5.91344 91.5505 6.06522 91.3402 6.06522H90.391C90.1798 6.06522 90.0086 5.91209 90.0086 5.7232V3.08115ZM86.7268 1.02174C86.5156 1.02174 86.3445 1.17487 86.3445 1.36376V2.39711C86.3445 2.586 86.5156 2.73913 86.7268 2.73913H87.8183C88.0294 2.73913 88.2006 2.89226 88.2006 3.08115V5.7232C88.2006 5.91209 88.0294 6.06522 87.8183 6.06522H86.7268C86.5156 6.06522 86.3445 6.21835 86.3445 6.40724V7.44059C86.3445 7.62948 86.5156 7.78261 86.7268 7.78261H87.8183C88.0294 7.78261 88.2008 7.93568 88.199 8.12457C88.1902 9.00029 88.1467 9.92983 88.0428 10.8902C88.024 11.0641 87.8598 11.1957 87.6646 11.1957H86.7027C86.4915 11.1957 86.3204 11.3488 86.3204 11.5377V12.571C86.3204 12.7599 86.4915 12.913 86.7027 12.913H87.2826C87.5218 12.913 87.7025 13.1073 87.6531 13.3167C87.2227 15.1414 86.4438 16.9322 85.1054 18.4552C84.9615 18.619 84.9988 18.8658 85.1719 19.0052C85.4043 19.1921 85.6632 19.4349 85.8725 19.6537C86.0346 19.8233 86.3363 19.8372 86.4927 19.6633C88.1435 17.8275 89.0245 15.505 89.4946 13.1975C89.5281 13.0334 89.6871 12.913 89.8736 12.913H91.2574C91.4717 12.913 91.6442 13.0714 91.6392 13.2631C91.5643 16.1221 91.4225 17.3628 91.2139 17.7391C91.0211 18.1087 90.8523 18.1739 90.563 18.1739C90.3008 18.1739 89.916 18.1739 89.4541 18.1534C89.1519 18.14 88.9232 18.4321 89.0134 18.6905C89.1189 18.9928 89.1982 19.3165 89.2457 19.598C89.2741 19.7658 89.4259 19.8992 89.6155 19.9064C90.3109 19.9328 90.9581 19.9201 91.4791 19.8261C92.1058 19.7391 92.4915 19.5435 92.9013 18.8913C93.504 17.9348 93.504 14.0435 93.5522 1.97826C93.5652 1.8497 93.5712 1.58291 93.574 1.36367C93.5763 1.17479 93.4051 1.02174 93.1939 1.02174H86.7268ZM100.172 1.02691C100.085 0.981794 99.9824 0.968774 99.8854 0.990649L99.7935 1.01137C99.763 1.01825 99.7316 1.02174 99.7001 1.02174H95.2604C95.0492 1.02174 94.8781 1.17487 94.8781 1.36376V19.6362C94.8781 19.8251 95.0492 19.9783 95.2604 19.9783H96.376C96.5871 19.9783 96.7583 19.8251 96.7583 19.6362V3.01593C96.7583 2.82704 96.9295 2.67391 97.1407 2.67391H98.671C98.9147 2.67391 99.0964 2.87464 99.0447 3.08769C98.6532 4.70232 98.1216 6.84621 97.6043 8.45354C97.5726 8.55192 97.5917 8.65792 97.6547 8.74341C98.9887 10.5546 99.2413 12.0961 99.2413 13.3478C99.2413 14.1087 99.169 14.7391 98.8556 15C98.6868 15.1522 98.4699 15.1957 98.2288 15.2174C98.1359 15.2174 98.0311 15.2174 97.9187 15.2165C97.6208 15.214 97.4001 15.5059 97.4775 15.7633C97.5588 16.0338 97.6093 16.3172 97.6334 16.5658C97.651 16.7477 97.8105 16.8989 98.0145 16.9031C98.3761 16.9104 98.7035 16.9023 98.9761 16.8696C99.4823 16.8043 99.868 16.6739 100.181 16.4348C100.832 15.9783 101.097 14.9783 101.097 13.6304C101.097 12.1438 100.798 10.4913 99.4361 8.57136C99.3746 8.48477 99.3577 8.37837 99.3918 8.28045C100.028 6.45267 100.762 3.92065 101.339 1.92407C101.381 1.77588 101.309 1.62064 101.161 1.54349L100.172 1.02691Z" fill="#575757"/>
<path d="M111.801 2.82407C111.954 2.7251 112.003 2.54176 111.911 2.39474C111.515 1.76022 110.887 0.914691 110.3 0.191954C110.182 0.046507 109.958 0.0100729 109.789 0.107121L108.828 0.658471C108.647 0.762276 108.597 0.97878 108.716 1.13909C109.242 1.84974 109.826 2.69643 110.218 3.35285C110.331 3.54099 110.604 3.60203 110.797 3.47665L111.801 2.82407ZM114.464 12.9086C114.557 12.7823 114.547 12.6163 114.436 12.5018C114.138 12.1937 113.643 11.6939 113.121 11.1856C112.978 11.0466 112.986 10.8306 113.139 10.7001C113.643 10.2686 114.203 9.76525 114.759 9.25179C114.909 9.11394 114.901 8.89318 114.743 8.76337L114.026 8.17443C113.848 8.02814 113.564 8.0642 113.429 8.2437C113.08 8.70788 112.617 9.25002 112.188 9.71561C112.046 9.86995 111.786 9.87832 111.629 9.73636C111.501 9.62078 111.384 9.51597 111.276 9.41819C111.257 9.40096 111.246 9.37769 111.246 9.35342C111.246 9.33558 111.252 9.31815 111.263 9.3032C112.314 7.8581 113.256 6.29608 113.944 4.70996C114.004 4.57206 113.955 4.41584 113.826 4.32356L113.052 3.77141C112.949 3.69731 112.809 3.67669 112.684 3.71693L112.611 3.74065C112.569 3.75403 112.525 3.76087 112.481 3.76087H106.639C106.427 3.76087 106.256 3.914 106.256 4.10289V5.24494C106.256 5.43383 106.427 5.58696 106.639 5.58696H110.829C111.111 5.58696 111.296 5.85043 111.165 6.07399C109.82 8.37557 107.814 10.5902 105.869 11.9747C105.709 12.0884 105.67 12.2933 105.768 12.4538C105.972 12.7908 106.203 13.2563 106.378 13.664C106.477 13.8929 106.802 13.9767 107.006 13.8128C107.508 13.4089 108.021 12.9521 108.527 12.4543C109.136 11.7915 109.221 11.7915 109.221 12.6864V19.6145C109.221 19.8034 109.392 19.9565 109.604 19.9565H110.864C111.075 19.9565 111.246 19.8034 111.246 19.6145V12.5885C111.246 11.6205 111.305 11.6126 111.938 12.3855C112.365 12.9064 112.775 13.4153 113.088 13.8466C113.245 14.0615 113.604 14.071 113.762 13.8572L114.464 12.9086ZM117.703 9.30435C117.492 9.30435 117.321 9.15122 117.321 8.96233V7.12463C117.321 6.93574 117.492 6.78261 117.703 6.78261H119.687C119.898 6.78261 120.069 6.93574 120.069 7.12463V8.96233C120.069 9.15122 119.898 9.30435 119.687 9.30435H117.703ZM117.321 3.03767C117.321 2.84878 117.492 2.69565 117.703 2.69565H119.687C119.898 2.69565 120.069 2.84878 120.069 3.03767V4.83189C120.069 5.02079 119.898 5.17391 119.687 5.17391H117.703C117.492 5.17391 117.321 5.02079 117.321 4.83189V3.03767ZM124.914 4.83189C124.914 5.02079 124.743 5.17391 124.532 5.17391H122.525C122.313 5.17391 122.142 5.02079 122.142 4.83189V3.03767C122.142 2.84878 122.313 2.69565 122.525 2.69565H124.532C124.743 2.69565 124.914 2.84878 124.914 3.03767V4.83189ZM124.914 8.96233C124.914 9.15122 124.743 9.30435 124.532 9.30435H122.525C122.313 9.30435 122.142 9.15122 122.142 8.96233V7.12463C122.142 6.93574 122.313 6.78261 122.525 6.78261H124.532C124.743 6.78261 124.914 6.93574 124.914 7.12463V8.96233ZM122.525 17.6522C122.313 17.6522 122.142 17.499 122.142 17.3102V15.2333C122.142 15.0444 122.313 14.8913 122.525 14.8913H126.822C127.033 14.8913 127.204 14.7382 127.204 14.5493V13.4507C127.204 13.2618 127.033 13.1087 126.822 13.1087H122.525C122.313 13.1087 122.142 12.9556 122.142 12.7667V11.3638C122.142 11.1749 122.313 11.0217 122.525 11.0217H126.653C126.865 11.0217 127.036 10.8686 127.036 10.6797V1.32028C127.036 1.13139 126.865 0.978261 126.653 0.978261H115.702C115.491 0.978261 115.32 1.13139 115.32 1.32028V10.6797C115.32 10.8686 115.491 11.0217 115.702 11.0217H119.687C119.898 11.0217 120.069 11.1749 120.069 11.3638V12.7667C120.069 12.9556 119.898 13.1087 119.687 13.1087H115.775C115.564 13.1087 115.392 13.2618 115.392 13.4507V14.5493C115.392 14.7382 115.564 14.8913 115.775 14.8913H119.687C119.898 14.8913 120.069 15.0444 120.069 15.2333V17.3102C120.069 17.499 119.898 17.6522 119.687 17.6522H114.811C114.599 17.6522 114.428 17.8053 114.428 17.9942V19.0928C114.428 19.2817 114.599 19.4348 114.811 19.4348H127.618C127.829 19.4348 128 19.2817 128 19.0928V17.9942C128 17.8053 127.829 17.6522 127.618 17.6522H122.525Z" fill="#575757"/>
</svg>
